<svg xmlns="http://www.w3.org/2000/svg" width="1400" height="300"><defs><filter id="rablfilter0" x="-100%" y="-100%" width="300%" height="300%"><feGaussianBlur in="SourceAlpha" stdDeviation="1" /><feOffset dx="0" dy="2" /><feComponentTransfer><feFuncA type="linear" slope="0.2" /></feComponentTransfer><feMerge><feMergeNode /><feMergeNode in="SourceGraphic" /></feMerge></filter></defs><g><rect fill="#ffffff" x="0" y="0" width="1400" height="300" /></g><g><rect fill="#ffffff" x="0" y="0" width="1400" height="42" /><rect fill="#f5f5f5" x="0" y="42" width="1400" height="42" /><rect fill="#ffffff" x="0" y="84" width="1400" height="42" /><rect fill="#f5f5f5" x="0" y="126" width="1400" height="42" /><rect fill="#ffffff" x="0" y="168" width="1400" height="42" /><rect fill="none" stroke="#e0e0e0" stroke-width="1" x="0" y="0" width="1400" height="210" /><line fill="none" stroke="#e0e0e0" stroke-width="1" x1="0" y1="42" x2="1400" y2="42" /><line fill="none" stroke="#e0e0e0" stroke-width="1" x1="0" y1="84" x2="1400" y2="84" /><line fill="none" stroke="#e0e0e0" stroke-width="1" x1="0" y1="126" x2="1400" y2="126" /><line fill="none" stroke="#e0e0e0" stroke-width="1" x1="0" y1="168" x2="1400" y2="168" /><text style="font-family: Arial; font-size: 13px; font-weight: bold; cursor: default; -webkit-user-select: none; -moz-osx-font-smoothing: grayscale;" fill="black" x="145.9" y="231.77" dx="0px">Wed</text><text style="font-family: Arial; font-size: 13px; font-weight: bold; cursor: default; -webkit-user-select: none; -moz-osx-font-smoothing: grayscale;" fill="black" x="145.9" y="246.77" dx="0px"> 12/31</text><text style="font-family: Arial; font-size: 13px; font-weight: normal; cursor: default; -webkit-user-select: none; -moz-osx-font-smoothing: grayscale;" fill="black" x="285.2445" y="231.77" dx="-11.19px">Thu</text><text style="font-family: Arial; font-size: 13px; font-weight: normal; cursor: default; -webkit-user-select: none; -moz-osx-font-smoothing: grayscale;" fill="black" x="424.5889" y="231.77" dx="-7.58px">Fri</text><text style="font-family: Arial; font-size: 13px; font-weight: normal; cursor: default; -webkit-user-select: none; -moz-osx-font-smoothing: grayscale;" fill="black" x="563.9334" y="231.77" dx="-9.75px">Sat</text><text style="font-family: Arial; font-size: 13px; font-weight: bold; cursor: default; -webkit-user-select: none; -moz-osx-font-smoothing: grayscale;" fill="black" x="703.2778" y="231.77" dx="-12.27px">Sun</text><text style="font-family: Arial; font-size: 13px; font-weight: bold; cursor: default; -webkit-user-select: none; -moz-osx-font-smoothing: grayscale;" fill="black" x="703.2778" y="246.77" dx="-9.03px"> 1/4</text><text style="font-family: Arial; font-size: 13px; font-weight: normal; cursor: default; -webkit-user-select: none; -moz-osx-font-smoothing: grayscale;" fill="black" x="842.6222" y="231.77" dx="-12.64px">Mon</text><text style="font-family: Arial; font-size: 13px; font-weight: normal; cursor: default; -webkit-user-select: none; -moz-osx-font-smoothing: grayscale;" fill="black" x="981.9667" y="231.77" dx="-11.2px">Tue</text><text style="font-family: Arial; font-size: 13px; font-weight: normal; cursor: default; -webkit-user-select: none; -moz-osx-font-smoothing: grayscale;" fill="black" x="1121.3112" y="231.77" dx="-13.36px">Wed</text><text style="font-family: Arial; font-size: 13px; font-weight: normal; cursor: default; -webkit-user-select: none; -moz-osx-font-smoothing: grayscale;" fill="black" x="1260.6555" y="231.77" dx="-11.2px">Thu</text><text style="font-family: Arial; font-size: 13px; font-weight: normal; cursor: default; -webkit-user-select: none; -moz-osx-font-smoothing: grayscale;" fill="black" x="1400" y="231.77" dx="-15.15px">Fri</text></g><g><path fill="none" stroke="#424242" stroke-width="1.4" d="M 424.589 34 L 424.589 34 A 29 29 0 0 0 453.589 63 L 834.622 63 M 828.965 57.3431 L 835.622 63 L 828.965 68.6569" /><path fill="none" stroke="#424242" stroke-width="1.4" d="M 912.294 76 L 912.294 159 A 30 30 0 0 0 942.294 189 L 1252.66 189 M 1247 183.343 L 1253.66 189 L 1247 194.657" /></g><g><path fill="none" stroke="#db4437" stroke-width="1.4" d="M 424.589 34 L 424.589 117 A 30 30 0 0 0 454.589 147 L 834.622 147 M 828.965 141.343 L 835.622 147 L 828.965 152.657" /><path fill="none" stroke="#db4437" stroke-width="1.4" d="M 424.589 34 L 424.589 75 A 30 30 0 0 0 454.589 105 L 695.278 105 M 689.621 99.3431 L 696.278 105 L 689.621 110.657" /><path fill="none" stroke="#db4437" stroke-width="1.4" d="M 772.95 118 L 772.95 118 A 29 29 0 0 0 801.95 147 L 834.622 147 M 828.965 141.343 L 835.622 147 L 828.965 152.657" /><path fill="none" stroke="#db4437" stroke-width="1.4" d="M 1051.64 160 L 1051.64 160 A 29 29 0 0 0 1080.64 189 L 1252.66 189 M 1247 183.343 L 1253.66 189 L 1247 194.657" /></g><g><rect fill="#424242" x="145.9" y="9" width="557.378" height="26" rx="5" ry="5" /><rect fill="#424242" x="842.622" y="51" width="139.344" height="26" rx="5" ry="5" /><rect fill="#424242" x="703.278" y="93" width="139.344" height="26" rx="5" ry="5" /><rect fill="#424242" x="842.622" y="135" width="418.033" height="26" rx="5" ry="5" /></g><g><rect fill="#5e97f6" x="145.9" y="8" width="557.378" height="26" rx="5" ry="5" /><rect fill="#5e97f6" x="842.622" y="50" width="139.344" height="26" rx="5" ry="5" /><rect fill="#5e97f6" x="703.278" y="92" width="139.344" height="26" rx="5" ry="5" /><rect fill="#5e97f6" x="842.622" y="134" width="418.033" height="26" rx="5" ry="5" /><rect fill="#5e97f6" x="1260.66" y="176" width="139.344" height="26" rx="5" ry="5" /></g><g><path fill="#2a56c6" d="M 698.278 8 A 5 5 0 0 1 703.278 13 L 703.278 29 A 5 5 0 0 1 698.278 34 L 150.9 34 A 5 5 0 0 1 145.9 29 L 145.9 13 A 5 5 0 0 1 150.9 8 Z" /><path fill="#2a56c6" d="M 870.491 50 A 0 0 0 0 1 870.491 50 L 870.491 76 A 0 0 0 0 1 870.491 76 L 847.622 76 A 5 5 0 0 1 842.622 71 L 842.622 55 A 5 5 0 0 1 847.622 50 Z" /><path fill="#2a56c6" d="M 837.622 92 A 5 5 0 0 1 842.622 97 L 842.622 113 A 5 5 0 0 1 837.622 118 L 708.278 118 A 5 5 0 0 1 703.278 113 L 703.278 97 A 5 5 0 0 1 708.278 92 Z" /><path fill="#2a56c6" d="M 947.131 134 A 0 0 0 0 1 947.131 134 L 947.131 160 A 0 0 0 0 1 947.131 160 L 847.622 160 A 5 5 0 0 1 842.622 155 L 842.622 139 A 5 5 0 0 1 847.622 134 Z" /></g><g><text style="font-family: Roboto; font-size: 14px; cursor: default; -webkit-user-select: none; -moz-osx-font-smoothing: grayscale;" fill="#5e97f6" x="129.9" y="25.43" dx="-71.16px">Find sources</text><text style="font-family: Roboto; font-size: 14px; cursor: default; -webkit-user-select: none; -moz-osx-font-smoothing: grayscale;" fill="#5e97f6" x="129.9" y="67.43" dx="-113.89px">Create Bibliography</text><text style="font-family: Roboto; font-size: 14px; cursor: default; -webkit-user-select: none; -moz-osx-font-smoothing: grayscale;" fill="#5e97f6" x="129.9" y="109.43" dx="-76.57px">Outline paper</text><text style="font-family: Roboto; font-size: 14px; cursor: default; -webkit-user-select: none; -moz-osx-font-smoothing: grayscale;" fill="#5e97f6" x="129.9" y="151.43" dx="-67.22px">Write Paper</text><text style="font-family: Roboto; font-size: 14px; cursor: default; -webkit-user-select: none; -moz-osx-font-smoothing: grayscale;" fill="#5e97f6" x="129.9" y="193.43" dx="-79.29px">Hand in paper</text></g><g /></svg>